HIERARCHY
ROOT Hips
{
  OFFSET 38.7231 90.9864 -100.312
  CHANNELS 6 Xposition Yposition Zposition Zrotation Xrotation Yrotation
  JOINT RightUpLeg
  {
    OFFSET -8.9458 -8.66707 0.101652
    CHANNELS 3 Zrotation Xrotation Yrotation
    JOINT RightLeg
    {
      OFFSET 0 -44.4227 1.3727
      CHANNELS 3 Zrotation Xrotation Yrotation
      JOINT RightFoot
      {
        OFFSET 0.253549 -42.0924 -1.46059
        CHANNELS 3 Zrotation Xrotation Yrotation
        JOINT RightToes
        {
          OFFSET 0.04 -4.41509 8.4991
          CHANNELS 3 Zrotation Xrotation Yrotation
          End Site
          {
            OFFSET -0.08 -0.137448 9.77979
          }
        }
      }
    }
  }
  JOINT Spine
  {
    OFFSET 0 11.8905 0
    CHANNELS 3 Zrotation Xrotation Yrotation
    JOINT Spine1
    {
      OFFSET 0 25.6574 0.127663
      CHANNELS 3 Zrotation Xrotation Yrotation
      JOINT HEad
      {
        OFFSET 0 8.73416 0.011341
        CHANNELS 3 Zrotation Xrotation Yrotation
        End Site
        {
          OFFSET -0.29 12.7742 2.51395
        }
      }
      JOINT LeftShoulder1
      {
        OFFSET 8.99 -0.362252 -0.22
        CHANNELS 3 Zrotation Xrotation Yrotation
        JOINT LeftArm
        {
          OFFSET 10.2827 -0.00338 0.322123
          CHANNELS 3 Zrotation Xrotation Yrotation
          JOINT LeftForeArm
          {
            OFFSET 32.7669 0.099144 -1.42434
            CHANNELS 3 Zrotation Xrotation Yrotation
            JOINT LeftHand
            {
              OFFSET 27.5643 0.085362 1.02216
              CHANNELS 3 Zrotation Xrotation Yrotation
              End Site
              {
                OFFSET 16.7443 -0.6 1.50291
              }
            }
          }
        }
      }
      JOINT RightShoulder
      {
        OFFSET -8.99 -0.362252 -0.22
        CHANNELS 3 Zrotation Xrotation Yrotation
        JOINT RightArm
        {
          OFFSET -10.2827 -0.00338 0.322123
          CHANNELS 3 Zrotation Xrotation Yrotation
          JOINT RightForeArm
          {
            OFFSET -32.8971 0.099144 -1.42434
            CHANNELS 3 Zrotation Xrotation Yrotation
            JOINT RightHand
            {
              OFFSET -27.4921 0.085362 1.02216
              CHANNELS 3 Zrotation Xrotation Yrotation
              End Site
              {
                OFFSET -16.6312 -0.6 1.50291
              }
            }
          }
        }
      }
    }
  }
  JOINT LeftUpLeg
  {
    OFFSET 8.9458 -8.66707 0.101652
    CHANNELS 3 Zrotation Xrotation Yrotation
    JOINT LeftLeg
    {
      OFFSET 0 -44.4227 1.3727
      CHANNELS 3 Zrotation Xrotation Yrotation
      JOINT LeftFoot
      {
        OFFSET -0.253549 -42.0924 -1.46059
        CHANNELS 3 Zrotation Xrotation Yrotation
        JOINT LeftToes
        {
          OFFSET -0.04 -4.41509 8.4991
          CHANNELS 3 Zrotation Xrotation Yrotation
          End Site
          {
            OFFSET 0.08 -0.047448 9.77979
          }
        }
      }
    }
  }
}
MOTION
Frames:	20
Frame Time:	0.0166667
29.9496 86.4061 -79.6327 12.2939 3.66964 -39.2484 -8.5931 8.69347 1.38518 19.9136 37.0541 -31.0616 4.78288 -7.72184 -0.169547 -2.15082 -6.10792 -17.6269 -6.15996 2.38975 9.42231 -11.6942 3.62172 18.8496 -5.47506 -14.7758 -34.3515 0 0 -1.59028e-015 -65.9047 -17.4588 -23.7687 -21.4851 31.605 -86.133 11.5681 4.8383 -45.931 -10.6959 -0.373761 8.45658 36.4419 -29.2376 70.8271 -12.5454 -5.52879 27.8161 -7.27566 12.2265 -44.0914 -7.72285 -40.9161 -4.34018 15.6901 3.34423 -65.1288 -28.546 10.0192 4.39516 14.3085 -24.0867 -12.0277 
29.2681 86.547 -79.6252 12.5679 4.55971 -37.3294 -7.92776 9.26231 1.18447 20.2554 35.3638 -29.3967 3.51209 -7.29767 -0.180555 -2.36315 -6.27309 -16.5501 -6.28401 2.51734 10.3626 -12.0853 3.81438 20.6233 -3.33538 -13.5734 -35.7594 1.98785e-016 6.36111e-015 -7.95139e-016 -64.575 -15.7535 -20.1819 -15.817 30.2883 -93.8073 13.2043 4.31282 -44.0479 -15.1142 -0.694707 7.59111 19.5728 -20.4435 66.5673 -21.1425 -23.2349 6.5744 -0.626796 9.86688 -40.7238 -8.37996 -40.6112 -4.65017 15.3331 1.27502 -66.5896 -28.7361 9.94873 4.40871 13.9364 -23.09 -11.2179 
28.6849 86.6569 -79.5714 12.4908 5.27211 -35.8712 -7.42858 9.55158 1.28588 20.3387 34.635 -27.4008 2.23528 -5.83015 -0.195621 -3.68392 -7.86629 -15.353 -6.25016 2.67974 10.9055 -12.2323 4.13869 21.6155 -0.646466 -12.9374 -35.6734 2.48481e-016 0 2.98177e-016 -63.7632 -14.9743 -17.6796 -12.3384 29.0179 -99.4012 14.1058 4.15455 -42.2496 -18.613 -0.907929 6.94999 14.3368 -17.3655 65.2016 -16.0716 -31.5963 4.99397 -0.168811 9.73921 -36.8101 -8.64128 -40.3248 -4.80819 15.1347 -0.0751434 -67.6847 -28.7672 10.0258 4.43284 13.9017 -22.8445 -10.8175 
28.2192 86.7724 -79.4847 12.1471 5.76543 -34.8808 -7.20207 9.51922 1.67592 20.1656 34.9128 -25.3828 1.1952 -3.80126 -0.18679 -5.91825 -10.7114 -13.8327 -6.14796 2.89046 11.0345 -12.2155 4.58772 21.8666 2.16843 -12.6729 -34.3306 6.4605e-016 -3.18055e-015 -0 -63.4216 -14.601 -16.2179 -10.2856 28.046 -103.726 14.6344 4.13785 -40.7608 -20.655 -1.00829 6.52844 15.2677 -16.8821 65.2824 -16.2673 -34.244 5.63768 -0.143545 9.7371 -35.868 -8.5838 -39.9902 -4.85981 15.127 -0.852542 -68.4332 -28.6014 10.1004 4.42417 14.0551 -22.9802 -10.5879 
27.8943 86.9149 -79.3818 11.5919 6.0184 -34.4189 -7.35981 9.16972 2.26958 19.731 36.1002 -23.5848 0.597884 -1.76669 -0.163866 -8.5878 -14.2803 -12.0832 -6.00418 3.1229 10.8267 -12.0877 5.10944 21.4925 4.75662 -12.4723 -32.1183 -4.22417e-016 0 -0 -63.5182 -14.2692 -15.747 -8.81972 27.3156 -107.382 15.3216 4.04766 -39.4257 -20.9111 -1.01401 6.43405 22.0979 -19.4761 66.8176 -21.3278 -30.6188 8.10814 -1.01795 9.98527 -37.6694 -8.21151 -39.5626 -4.81283 15.3259 -1.14348 -68.8277 -28.1813 10.038 4.34036 14.2744 -23.1851 -10.2887 
27.717 87.0818 -79.2723 10.8813 6.04504 -34.5108 -7.96624 8.51468 2.93595 19.0134 37.9664 -22.1098 0.516013 -0.155326 -0.156351 -11.1117 -17.8197 -10.453 -5.84453 3.34884 10.3803 -11.8837 5.63714 20.6622 6.87003 -12.0984 -29.5276 2.48481e-016 3.18055e-015 -3.97569e-016 -63.9666 -13.7929 -16.1983 -7.37542 26.7254 -110.592 16.5339 3.78584 -37.9698 -19.3775 -0.955297 6.85577 38.3559 -27.6077 71.0523 -13.1628 -16.9388 25.5154 -7.85961 12.0359 -38.2141 -7.54845 -39.0789 -4.68453 15.7196 -0.926176 -68.8774 -27.4633 9.74957 4.15567 14.477 -23.2646 -9.78646 
27.693 87.2466 -79.1816 10.0428 5.90937 -35.0686 -8.95444 7.52177 3.51383 17.9911 40.2601 -20.9161 0.916492 0.831061 -0.184037 -13.0215 -20.5935 -9.28893 -5.65631 3.54915 9.73498 -11.6208 6.10919 19.5578 8.38907 -11.478 -27.0294 3.97569e-016 6.36111e-015 -3.97569e-016 -64.6176 -13.2082 -17.4512 -5.75004 26.2922 -113.248 18.3373 3.38222 -36.2229 -16.3694 -0.830239 7.90566 67.3352 -39.5565 81.9167 3.98729 16.1485 49.3277 -22.4034 16.2684 -37.4985 -6.65429 -38.6153 -4.50046 16.2669 -0.218837 -68.6763 -26.5234 9.22853 3.88756 14.6206 -23.1604 -9.09392 
27.7668 87.3902 -79.0849 9.11818 5.63146 -36.0573 -10.2634 6.27747 3.93437 16.6174 42.5996 -19.7475 1.71403 1.29268 -0.247041 -14.0674 -22.1341 -8.72512 -5.48008 3.71275 9.01167 -11.3058 6.48696 18.3306 9.33357 -10.679 -24.9459 -3.97569e-016 3.18055e-015 -2.38542e-015 -65.3153 -12.7943 -19.3005 -4.10058 26.2238 -115.074 20.4643 2.95612 -34.2816 -12.3662 -0.592052 9.50071 106.815 -47.6796 101.682 16.6633 55.8992 64.9604 -31.3571 19.1298 -38.0891 -5.57137 -38.2895 -4.2737 16.9137 1.20852 -68.2264 -25.3244 8.46923 3.53873 14.7023 -22.9282 -8.32802 
27.8985 87.484 -78.978 8.09674 5.23693 -37.4067 -11.7516 4.85244 4.16136 14.9137 44.7411 -18.3518 2.8566 1.54787 -0.341028 -14.3132 -22.4775 -8.69973 -5.28878 3.82747 8.29107 -10.9249 6.76097 17.0711 9.83248 -9.81914 -23.3874 -2.38542e-015 6.36111e-015 -1.59028e-015 -65.9734 -12.9609 -21.4599 -2.80801 26.8299 -115.821 22.4156 2.62021 -32.5472 -7.80799 -0.187849 11.404 122.924 -49.4474 107.06 13.0907 70.8467 84.052 -31.5465 19.4373 -38.956 -4.31503 -38.1584 -4.00154 17.6138 3.46104 -67.5679 -23.9075 7.50858 3.13584 14.7527 -22.6832 -7.62935 
28.0537 87.5282 -78.8841 6.996 4.75109 -39.0151 -13.2655 3.30308 4.20738 12.9755 46.5224 -16.628 4.30077 2.15829 -0.475974 -14.2293 -22.2818 -9.10264 -5.12248 3.92843 7.58387 -10.4578 6.97924 15.8141 10.0525 -8.98507 -22.2706 -7.95139e-016 -3.18055e-015 1.59028e-015 -66.5848 -14.0106 -23.6078 -2.27159 28.2809 -115.399 23.6674 2.40754 -31.5625 -2.98695 0.404354 13.3489 115.22 -50.2749 95.9476 -3.93524 68.2014 110.39 -29.2999 19.4174 -41.546 -2.93083 -38.0627 -3.68822 18.3291 6.15579 -66.723 -22.5188 6.46609 2.74637 14.821 -22.5432 -7.09635 
28.1987 87.5199 -78.7972 5.77619 4.1863 -40.8019 -14.6542 1.79228 4.12175 10.9729 47.8377 -14.6113 5.9462 3.77153 -0.689806 -14.6095 -22.6475 -9.84854 -4.94161 4.03909 6.88207 -9.86875 7.19998 14.553 10.1246 -8.19789 -21.3884 1.59028e-015 -6.36111e-015 -3.18055e-015 -67.1368 -15.9635 -25.4396 -2.79175 30.4362 -113.856 23.8305 2.30944 -31.7518 1.92847 1.16799 15.1229 103.641 -49.4308 81.973 -15.4327 61.5467 128.943 -26.2878 19.2549 -45.0808 -1.42981 -37.9186 -3.34953 19.0355 9.18841 -65.729 -21.203 5.40193 2.38828 14.9579 -22.5962 -6.76439 
28.3133 87.4433 -78.7193 4.40828 3.54204 -42.7333 -15.8391 0.44855 3.9851 9.14721 48.7626 -12.5234 7.67817 6.82129 -1.04589 -16.2518 -24.6077 -10.8501 -4.7354 4.18801 6.18191 -9.12718 7.4859 13.2708 10.1053 -7.42039 -20.4916 -3.18055e-015 0 3.18055e-015 -67.515 -18.5801 -26.6893 -4.56907 32.8927 -111.301 22.6894 2.37204 -33.2542 6.80351 2.05223 16.5847 90.4413 -45.7778 67.1721 -21.5171 51.8028 140.074 -22.0378 18.6259 -49.6177 0.175753 -37.6578 -3.01412 19.7201 12.4926 -64.5977 -19.9713 4.35326 2.06738 15.2078 -22.9003 -6.6213 
28.3878 87.2858 -78.6496 2.86767 2.82182 -44.8106 -16.8018 -0.622657 3.88129 7.72542 49.4579 -10.7238 9.43163 11.3261 -1.60682 -19.5767 -28.5603 -12.0298 -4.4908 4.3899 5.48329 -8.21867 7.8761 11.9597 9.98248 -6.58073 -19.3539 -3.18055e-015 6.36111e-015 -0 -67.4883 -21.5042 -27.1178 -7.69197 35.1559 -107.891 20.2084 2.73969 -35.8728 11.461 2.97609 17.657 78.1541 -38.7767 53.9448 -24.5607 39.4587 146.266 -16.108 17.0316 -55.0129 1.88132 -37.2026 -2.69791 20.3685 15.9812 -63.328 -18.8369 3.35453 1.78729 15.6135 -23.5057 -6.63657 
28.4209 87.0421 -78.5868 1.1475 2.04094 -47.0646 -17.5748 -1.35755 3.87524 6.86268 50.1016 -9.63097 11.1404 16.8189 -2.38713 -24.3903 -34.0039 -13.384 -4.1938 4.63801 4.79585 -7.15578 8.37023 10.6338 9.70842 -5.59489 -17.8149 -1.59028e-015 0 -0 -66.7819 -24.3825 -26.5043 -11.998 36.7939 -103.949 16.5961 3.58161 -39.086 15.6624 3.83868 18.318 68.4076 -28.6994 43.741 -26.3662 24.9581 149.189 -8.42998 13.9384 -60.6222 3.68608 -36.4757 -2.39846 20.952 19.5363 -61.8964 -17.8241 2.45393 1.55309 16.2215 -24.4708 -6.78044 
28.4187 86.7187 -78.5348 -0.728181 1.23072 -49.5433 -18.2174 -1.75133 3.9958 6.62359 50.8258 -9.59284 12.5632 22.4553 -3.27645 -29.924 -39.7511 -15.0025 -3.83267 4.90366 4.14162 -5.98191 8.92564 9.33554 9.23529 -4.3835 -15.8019 -1.59028e-015 -1.59028e-015 3.18055e-015 -65.1998 -26.9077 -24.6789 -16.8788 37.5639 -100.093 12.3952 4.90799 -42.1732 19.15 4.54143 18.5945 61.6168 -16.67 36.6943 -28.0985 9.34663 149.706 0.356207 9.2711 -65.1805 5.5869 -35.4147 -2.10127 21.4143 23.0132 -60.2472 -16.9602 1.71698 1.37064 17.0763 -25.8528 -7.02072 
28.3933 86.3353 -78.509 -2.69506 0.436987 -52.2911 -18.7879 -1.86741 4.22879 6.98833 51.6806 -10.7524 13.2005 27.2416 -3.97396 -35.1658 -44.521 -16.995 -3.40475 5.1437 3.55461 -4.76456 9.4681 8.13575 8.53636 -2.88767 -13.3358 -0 0 3.18055e-015 -62.7506 -28.8269 -21.6074 -21.3227 37.5191 -97.1551 8.44364 6.42267 -44.5235 21.7252 5.01588 18.5483 57.4721 -4.6563 32.1686 -30.2843 -5.19721 148.395 8.83272 4.04579 -67.5113 7.56933 -33.9895 -1.79435 21.667 26.2547 -58.2963 -16.2586 1.21082 1.24337 18.1999 -27.6618 -7.29974 
28.3614 85.9222 -78.542 -4.64552 -0.289121 -55.3246 -19.327 -1.82183 4.52313 7.85869 52.6211 -12.987 12.5126 30.2713 -4.08215 -39.2034 -47.4484 -19.3469 -2.92685 5.31467 3.07724 -3.58121 9.91344 7.12367 7.61202 -1.08921 -10.5203 -0 0 3.18055e-015 -59.7192 -29.9714 -17.4865 -24.332 36.9738 -95.8066 5.62094 7.62784 -45.9105 23.3154 5.24257 18.2591 55.3878 4.8906 29.3648 -32.3928 -15.6534 146.284 15.137 0.0530664 -67.7711 9.59741 -32.219 -1.48327 21.599 29.1073 -55.9563 -15.7064 0.976318 1.16913 19.5615 -29.7957 -7.51103 
28.3445 85.5178 -78.6814 -6.4396 -0.90515 -58.6067 -19.8481 -1.73826 4.80483 9.05513 53.5225 -15.9321 10.3692 30.8726 -3.41838 -41.294 -48.1685 -21.7719 -2.43552 5.38761 2.75092 -2.50192 10.1929 6.38565 6.48805 0.967363 -7.51665 -1.59028e-015 0 3.18055e-015 -56.6159 -30.3176 -12.7606 -25.3581 36.2731 -96.237 4.51043 8.12371 -46.425 23.9939 5.25137 17.8123 54.7474 9.98864 27.6891 -32.8629 -19.6413 145.074 17.7045 -1.47777 -67.2992 11.6079 -30.1757 -1.19828 21.1058 31.4271 -53.1799 -15.2631 1.00732 1.13908 21.0524 -31.9931 -7.50492 
28.3679 85.1676 -78.9799 -7.93138 -1.38903 -62.0289 -20.3342 -1.69732 4.99849 10.3363 54.2184 -19.0776 7.33732 28.7 -2.26392 -40.8509 -46.6646 -23.7132 -1.96832 5.35535 2.59984 -1.57551 10.2719 5.9773 5.21342 3.16154 -4.50931 8.82781e-032 -1.59028e-015 3.18055e-015 -53.9934 -30.0227 -8.00234 -24.424 35.581 -98.1653 5.18637 7.81675 -46.1931 23.9492 5.10512 17.2913 55.0812 10.0938 26.8268 -30.8627 -16.7218 145.61 16.1251 -0.382858 -66.8342 13.5151 -27.9768 -0.988652 20.1349 33.0745 -50.0085 -14.8715 1.25601 1.13974 22.4784 -33.8533 -7.14094 
28.4595 84.9226 -79.481 -9.00204 -1.74347 -65.412 -20.7509 -1.70512 5.053 11.4653 54.5367 -21.9341 4.42779 23.8514 -1.18052 -37.7048 -43.1944 -24.5961 -1.54296 5.23085 2.61615 -0.825005 10.1575 5.90106 3.85608 5.30348 -1.67154 -8.82781e-032 -1.59028e-015 -3.18055e-015 -52.2454 -29.3797 -3.72819 -22.0273 34.8808 -101.024 7.21906 6.9263 -45.2731 23.427 4.87666 16.7706 56.1418 6.29724 26.6048 -27.501 -8.5541 146.837 11.3777 2.72011 -65.7447 15.2266 -25.7659 -0.908457 18.7315 33.9151 -46.5962 -14.4795 1.66799 1.15828 23.5823 -34.9467 -6.36646 
